HIERARCHY
ROOT RootJoint
{
    OFFSET   0.000000   0.000000   0.000000
    CHANNELS 6 Xposition Yposition Zposition Xrotation Yrotation Zrotation
    JOINT pelvis_lowerback
    {
        OFFSET   0.000000   0.093605   0.000000
        CHANNELS 3 Xrotation Yrotation Zrotation
        JOINT lowerback_torso
        {
            OFFSET   0.000000   0.100000   0.000000
            CHANNELS 3 Xrotation Yrotation Zrotation
            JOINT torso_head
            {
                OFFSET   0.000000   0.282350   0.000000
                CHANNELS 3 Xrotation Yrotation Zrotation
                End Site
                {
                    OFFSET   0.000000   0.192650   0.000000
                }
            }
            JOINT rTorso_Clavicle
            {
                OFFSET  -0.001000   0.157500   0.000000
                CHANNELS 3 Xrotation Yrotation Zrotation
                JOINT rShoulder
                {
                    OFFSET  -0.117647   0.000000   0.000000
                    CHANNELS 3 Xrotation Yrotation Zrotation
                    JOINT rElbow
                    {
                        OFFSET  -0.245000   0.000000   0.000000
                        CHANNELS 3 Xrotation Yrotation Zrotation
                        JOINT rWrist
                        {
                            OFFSET  -0.240000   0.000000   0.000000
                            CHANNELS 3 Xrotation Yrotation Zrotation
                            End Site
                            {
                                OFFSET  -0.116353  -0.002500   0.000000
                            }
                        }
                    }
                }
            }
            JOINT lTorso_Clavicle
            {
                OFFSET   0.001000   0.157500   0.000000
                CHANNELS 3 Xrotation Yrotation Zrotation
                JOINT lShoulder
                {
                    OFFSET   0.117647   0.000000   0.000000
                    CHANNELS 3 Xrotation Yrotation Zrotation
                    JOINT lElbow
                    {
                        OFFSET   0.245000   0.000000   0.000000
                        CHANNELS 3 Xrotation Yrotation Zrotation
                        JOINT lWrist
                        {
                            OFFSET   0.240000   0.000000   0.000000
                            CHANNELS 3 Xrotation Yrotation Zrotation
                            End Site
                            {
                                OFFSET   0.116353  -0.002500   0.000000
                            }
                        }
                    }
                }
            }
        }
    }
    JOINT rHip
    {
        OFFSET  -0.100000  -0.051395   0.000000
        CHANNELS 3 Xrotation Yrotation Zrotation
        JOINT rKnee
        {
            OFFSET   0.000000  -0.410000   0.000000
            CHANNELS 3 Xrotation Yrotation Zrotation
            JOINT rAnkle
            {
                OFFSET   0.000000  -0.390000   0.000000
                CHANNELS 3 Xrotation Yrotation Zrotation
                JOINT rToeJoint
                {
                    OFFSET   0.000000  -0.050000   0.130000
                    CHANNELS 3 Xrotation Yrotation Zrotation
                    End Site
                    {
                        OFFSET  -0.010000   0.002000   0.060000
                    }
                }
            }
        }
    }
    JOINT lHip
    {
        OFFSET   0.100000  -0.051395   0.000000
        CHANNELS 3 Xrotation Yrotation Zrotation
        JOINT lKnee
        {
            OFFSET   0.000000  -0.410000   0.000000
            CHANNELS 3 Xrotation Yrotation Zrotation
            JOINT lAnkle
            {
                OFFSET   0.000000  -0.390000   0.000000
                CHANNELS 3 Xrotation Yrotation Zrotation
                JOINT lToeJoint
                {
                    OFFSET   0.000000  -0.050000   0.130000
                    CHANNELS 3 Xrotation Yrotation Zrotation
                    End Site
                    {
                        OFFSET   0.010000   0.002000   0.060000
                    }
                }
            }
        }
    }
}
MOTION
Frames: 12
Frame Time:   0.008333
 -2.450092   0.898447   6.119396  -2.145466   2.748081  -0.104812  20.981072   1.808528   0.825949   8.147279   2.118709   3.089568   5.649985   3.230730  -0.309870   1.599385  -2.826982   4.097139  -1.359892   2.015881  43.530982  -0.000032  30.376093  -0.000129  -0.499077   3.177664  -3.969646   3.567424   5.996923  -0.321368   9.377219  -2.283166 -50.837885  -0.000004 -39.192330  -0.000044   1.320174  -5.232534  -0.875045 -11.706635  -1.833012  -7.264101  38.666350   0.011017   0.016705 -10.065208  -5.134506   4.244889 -13.691887   0.000043   0.002403 -13.644686  -3.443931  -2.368788  28.099424   0.000379   0.000841 -12.679899   4.324161   5.736594   0.136302  -0.000017  -0.000000
 -2.449771   0.898222   6.120826  -2.234038   3.454589  -0.008047  20.975554   1.727095   0.796551   8.090976   2.126568   3.051507   5.668106   3.304902  -0.424524   1.674742  -2.895922   4.037569  -1.267255   2.060278  43.623176  -0.000028  30.384782  -0.000145  -0.525070   3.163451  -3.903721   3.515128   6.018390  -0.303393   9.346018  -2.314444 -50.841800   0.000028 -39.263251  -0.000423   1.272510  -5.207020  -0.744234 -12.090298  -1.696289  -7.382761  40.159381   0.014043   0.021659 -10.053168  -5.255316   4.226460 -12.832662   0.001692   0.006342 -13.562912  -3.636684  -2.534072  28.162556   0.000383   0.000925 -12.730474   3.845216   5.756218   0.131951  -0.000014  -0.000000
 -2.449579   0.898063   6.122188  -2.328511   4.224979   0.080393  20.990741   1.638180   0.786896   8.051018   2.122165   3.026398   5.686758   3.375806  -0.533369   1.750103  -2.966462   3.976025  -1.176268   2.096982  43.703754  -0.000023  30.390418  -0.000145  -0.549086   3.147122  -3.837941   3.456504   6.026719  -0.288003   9.307120  -2.352358 -50.847894   0.000063 -39.336601  -0.000736   1.227123  -5.218584  -0.615360 -12.470332  -1.545455  -7.462405  41.634727   0.016925   0.026447 -10.019542  -5.338759   4.214474 -11.780384   0.003407   0.011522 -13.474945  -3.868919  -2.685514  28.199671   0.000352   0.000899 -12.756134   3.336783   5.774854   0.129797  -0.000011  -0.000000
 -2.449482   0.897943   6.123521  -2.424144   5.008401   0.167454  21.014238   1.557726   0.779776   8.023698   2.116675   3.002719   5.707010   3.442551  -0.634842   1.822640  -3.035354   3.915366  -1.089273   2.128885  43.776235  -0.000019  30.394256  -0.000136  -0.571993   3.123933  -3.775271   3.399902   6.032450  -0.274946   9.268834  -2.389749 -50.854977   0.000096 -39.406715  -0.000966   1.183499  -5.244099  -0.493439 -12.842804  -1.398943  -7.520749  43.025525   0.019075   0.029836  -9.987110  -5.415714   4.203386 -10.810662   0.004732   0.015305 -13.382002  -4.117846  -2.827891  28.219299   0.000305   0.000803 -12.770080   2.828648   5.793164   0.129465  -0.000009  -0.000000
 -2.449462   0.897845   6.124841  -2.520346   5.783919   0.255213  21.042813   1.488763   0.770222   8.005439   2.114992   2.976248   5.727779   3.505146  -0.729945   1.890834  -3.100716   3.855757  -1.007522   2.157833  43.841752  -0.000016  30.397321  -0.000125  -0.593857   3.097523  -3.716514   3.348811   6.039874  -0.264140   9.234715  -2.423769 -50.862924   0.000123 -39.471789  -0.001120   1.141675  -5.269853  -0.379364 -13.207814  -1.259300  -7.565513  44.322209   0.020452   0.031793  -9.957056  -5.487324   4.192978  -9.922780   0.005702   0.017762 -13.285411  -4.372677  -2.962384  28.229730   0.000255   0.000686 -12.779795   2.331606   5.808701   0.130121  -0.000007  -0.000000
 -2.449507   0.897757   6.126160  -2.617442   6.543164   0.344419  21.074781   1.431154   0.757038   7.994140   2.118431   2.946028   5.748479   3.563713  -0.819256   1.954057  -3.161775   3.797247  -0.931486   2.184769  43.900869  -0.000014  30.400131  -0.000116  -0.614658   3.070790  -3.662429   3.304197   6.050277  -0.255621   9.205808  -2.453588 -50.871651   0.000145 -39.531322  -0.001209   1.101633  -5.289667  -0.273136 -13.564590  -1.126876  -7.600929  45.527334   0.021152   0.032567  -9.929369  -5.554079   4.183194  -9.109876   0.006364   0.019147 -13.185771  -4.628579  -3.089829  28.236092   0.000210   0.000575 -12.789841   1.849567   5.822631   0.131817  -0.000006  -0.000000
 -2.449609   0.897675   6.127484  -2.715586   7.282477   0.435392  21.108826   1.384026   0.740216   7.988233   2.127010   2.912195   5.768802   3.618446  -0.903156   2.012190  -3.218309   3.739957  -0.861189   2.210197  43.954118  -0.000012  30.402934  -0.000108  -0.634400   3.045326  -3.613341   3.265953   6.063759  -0.249366   9.182091  -2.479226 -50.881092   0.000160 -39.585418  -0.001248   1.063297  -5.301461  -0.174478 -13.912242  -1.001460  -7.629644  46.646210   0.021300   0.032441  -9.903895  -5.616356   4.173993  -8.365564   0.006764   0.019710 -13.083482  -4.883140  -3.210738  28.241139   0.000173   0.000480 -12.802438   1.383997   5.834637   0.134342  -0.000005  -0.000000
 -2.449876   0.897762   6.128662  -2.797583   8.110569   0.509305  21.201825   1.329719   0.760269   7.954714   2.131307   2.899809   5.739288   3.711661  -1.017670   2.082282  -3.327654   3.644538  -0.750255   2.253055  44.039245  -0.000002  30.478126  -0.000561  -0.645689   3.022259  -3.578737   3.171929   6.057276  -0.241154   9.133983  -2.502596 -50.903239   0.000212 -39.731185  -0.001838   1.044393  -5.211845  -0.099071 -14.170709  -0.533429  -7.537066  47.319302   0.021135   0.032069 -10.222123  -5.420449   4.178510  -7.729535   0.006822   0.023617 -12.977933  -5.116698  -3.285005  28.165818   0.000062   0.000006 -12.742088   0.797507   5.790678   0.127324  -0.000006  -0.000000
 -2.450232   0.897888   6.129759  -2.874409   8.984493   0.591345  21.309115   1.269053   0.787919   7.931326   2.121427   2.891892   5.712026   3.801777  -1.126271   2.154158  -3.438575   3.545746  -0.640815   2.288709  44.117157   0.000008  30.549173  -0.000921  -0.654307   3.013768  -3.533245   3.069129   6.036841  -0.226594   9.074321  -2.535511 -50.924714   0.000249 -39.878614  -0.002310   1.025036  -5.174898  -0.021171 -14.466507  -0.041863  -7.444190  47.856637   0.020382   0.030766 -10.527916  -5.233381   4.182889  -7.173294   0.006830   0.026046 -12.878665  -5.379069  -3.364986  28.061467  -0.000053  -0.000536 -12.656459   0.193892   5.752125   0.123005  -0.000005  -0.000000
 -2.450668   0.898018   6.130839  -2.965323   9.869197   0.679910  21.432104   1.210616   0.816255   7.924873   2.106701   2.885261   5.689869   3.886548  -1.227624   2.222975  -3.544686   3.448058  -0.536824   2.319860  44.186421   0.000013  30.614445  -0.001179  -0.662232   3.001997  -3.488632   2.967257   6.011079  -0.209267   9.012766  -2.570420 -50.943324   0.000275 -40.019803  -0.002637   1.006294  -5.164098   0.057213 -14.795814   0.434753  -7.358791  48.324605   0.019331   0.029007 -10.814788  -5.058558   4.187887  -6.665411   0.006769   0.027277 -12.769098  -5.657915  -3.444613  27.953892  -0.000140  -0.000983 -12.568938  -0.405238   5.718036   0.121127  -0.000004  -0.000000
 -2.451174   0.898137   6.131941  -3.075293  10.748386   0.773747  21.566067   1.157376   0.842842   7.934077   2.092105   2.878571   5.672489   3.965930  -1.322183   2.287915  -3.645016   3.353794  -0.438853   2.347690  44.248597   0.000013  30.674526  -0.001351  -0.669751   2.985439  -3.447450   2.870906   5.985319  -0.191252   8.954002  -2.603717 -50.959554   0.000291 -40.152304  -0.002838   0.988408  -5.160844   0.134327 -15.149458   0.889611  -7.280670  48.741428   0.018110   0.027007 -11.083224  -4.895329   4.193566  -6.200813   0.006625   0.027541 -12.644401  -5.945985  -3.519845  27.853983  -0.000194  -0.001292 -12.490023  -0.991627   5.685973   0.121125  -0.000004  -0.000000
 -2.451744   0.898242   6.133090  -3.204494  11.614150   0.872820  21.705849   1.110304   0.866541   7.955469   2.079762   2.871028   5.658950   4.040139  -1.410504   2.349045  -3.739649   3.264221  -0.346698   2.372736  44.305128   0.000009  30.729921  -0.001451  -0.676955   2.965017  -3.409428   2.782067   5.962188  -0.173766   8.900155  -2.633854 -50.974121   0.000298 -40.275398  -0.002941   0.971363  -5.156103   0.208810 -15.519912   1.321527  -7.209609  49.114907   0.016793   0.024891 -11.334248  -4.742959   4.199801  -5.775713   0.006405   0.027082 -12.503710  -6.239186  -3.589117  27.765629  -0.000219  -0.001469 -12.423984  -1.561767   5.653202   0.122333  -0.000003   0.000000
